<?xml version="1.0" encoding="UTF-8"?>
<!-- This file is generated by yarn build:icons -->
<svg xmlns="http://www.w3.org/2000/svg" xmlns:xlink="http://www.w3.org/1999/xlink" width="0" height="0">
<defs>
<symbol stroke="currentColor" fill="currentColor" stroke-width="0" viewBox="0 0 16 16" id="bs/search">
  <path d="M11.742 10.344a6.5 6.5 0 1 0-1.397 1.398h-.001c.03.04.062.078.098.115l3.85 3.85a1 1 0 0 0 1.415-1.414l-3.85-3.85a1.007 1.007 0 0 0-.115-.1zM12 6.5a5.5 5.5 0 1 1-11 0 5.5 5.5 0 0 1 11 0z"></path>
</symbol>
<symbol stroke="currentColor" fill="currentColor" stroke-width="0" viewBox="0 0 512 512" id="fa6/facebook">
  <path d="M504 256C504 119 393 8 256 8S8 119 8 256c0 123.78 90.69 226.38 209.25 245V327.69h-63V256h63v-54.64c0-62.15 37-96.48 93.67-96.48 27.14 0 55.52 4.84 55.52 4.84v61h-31.28c-30.8 0-40.41 19.12-40.41 38.73V256h68.78l-11 71.69h-57.78V501C413.31 482.38 504 379.78 504 256z"></path>
</symbol>
<symbol stroke="currentColor" fill="currentColor" stroke-width="0" viewBox="0 0 448 512" id="fa6/instagram">
  <path d="M224.1 141c-63.6 0-114.9 51.3-114.9 114.9s51.3 114.9 114.9 114.9S339 319.5 339 255.9 287.7 141 224.1 141zm0 189.6c-41.1 0-74.7-33.5-74.7-74.7s33.5-74.7 74.7-74.7 74.7 33.5 74.7 74.7-33.6 74.7-74.7 74.7zm146.4-194.3c0 14.9-12 26.8-26.8 26.8-14.9 0-26.8-12-26.8-26.8s12-26.8 26.8-26.8 26.8 12 26.8 26.8zm76.1 27.2c-1.7-35.9-9.9-67.7-36.2-93.9-26.2-26.2-58-34.4-93.9-36.2-37-2.1-147.9-2.1-184.9 0-35.8 1.7-67.6 9.9-93.9 36.1s-34.4 58-36.2 93.9c-2.1 37-2.1 147.9 0 184.9 1.7 35.9 9.9 67.7 36.2 93.9s58 34.4 93.9 36.2c37 2.1 147.9 2.1 184.9 0 35.9-1.7 67.7-9.9 93.9-36.2 26.2-26.2 34.4-58 36.2-93.9 2.1-37 2.1-147.8 0-184.8zM398.8 388c-7.8 19.6-22.9 34.7-42.6 42.6-29.5 11.7-99.5 9-132.1 9s-102.7 2.6-132.1-9c-19.6-7.8-34.7-22.9-42.6-42.6-11.7-29.5-9-99.5-9-132.1s-2.6-102.7 9-132.1c7.8-19.6 22.9-34.7 42.6-42.6 29.5-11.7 99.5-9 132.1-9s102.7-2.6 132.1 9c19.6 7.8 34.7 22.9 42.6 42.6 11.7 29.5 9 99.5 9 132.1s2.7 102.7-9 132.1z"></path>
</symbol>
<symbol stroke="currentColor" fill="currentColor" stroke-width="0" viewBox="0 0 448 512" id="fa6/linkedin">
  <path d="M416 32H31.9C14.3 32 0 46.5 0 64.3v383.4C0 465.5 14.3 480 31.9 480H416c17.6 0 32-14.5 32-32.3V64.3c0-17.8-14.4-32.3-32-32.3zM135.4 416H69V202.2h66.5V416zm-33.2-243c-21.3 0-38.5-17.3-38.5-38.5S80.9 96 102.2 96c21.2 0 38.5 17.3 38.5 38.5 0 21.3-17.2 38.5-38.5 38.5zm282.1 243h-66.4V312c0-24.8-.5-56.7-34.5-56.7-34.6 0-39.9 27-39.9 54.9V416h-66.4V202.2h63.7v29.2h.9c8.9-16.8 30.6-34.5 62.9-34.5 67.2 0 79.7 44.3 79.7 101.9V416z"></path>
</symbol>
<symbol stroke="currentColor" fill="currentColor" stroke-width="0" viewBox="0 0 496 512" id="fa6/pinterest">
  <path d="M496 256c0 137-111 248-248 248-25.6 0-50.2-3.9-73.4-11.1 10.1-16.5 25.2-43.5 30.8-65 3-11.6 15.4-59 15.4-59 8.1 15.4 31.7 28.5 56.8 28.5 74.8 0 128.7-68.8 128.7-154.3 0-81.9-66.9-143.2-152.9-143.2-107 0-163.9 71.8-163.9 150.1 0 36.4 19.4 81.7 50.3 96.1 4.7 2.2 7.2 1.2 8.3-3.3.8-3.4 5-20.3 6.9-28.1.6-2.5.3-4.7-1.7-7.1-10.1-12.5-18.3-35.3-18.3-56.6 0-54.7 41.4-107.6 112-107.6 60.9 0 103.6 41.5 103.6 100.9 0 67.1-33.9 113.6-78 113.6-24.3 0-42.6-20.1-36.7-44.8 7-29.5 20.5-61.3 20.5-82.6 0-19-10.2-34.9-31.4-34.9-24.9 0-44.9 25.7-44.9 60.2 0 22 7.4 36.8 7.4 36.8s-24.5 103.8-29 123.2c-5 21.4-3 51.6-.9 71.2C65.4 450.9 0 361.1 0 256 0 119 111 8 248 8s248 111 248 248z"></path>
</symbol>
<symbol stroke="currentColor" fill="currentColor" stroke-width="0" viewBox="0 0 496 512" id="fa6/telegram">
  <path d="M248,8C111.033,8,0,119.033,0,256S111.033,504,248,504,496,392.967,496,256,384.967,8,248,8ZM362.952,176.66c-3.732,39.215-19.881,134.378-28.1,178.3-3.476,18.584-10.322,24.816-16.948,25.425-14.4,1.326-25.338-9.517-39.287-18.661-21.827-14.308-34.158-23.215-55.346-37.177-24.485-16.135-8.612-25,5.342-39.5,3.652-3.793,67.107-61.51,68.335-66.746.153-.655.3-3.1-1.154-4.384s-3.59-.849-5.135-.5q-3.283.746-104.608,69.142-14.845,10.194-26.894,9.934c-8.855-.191-25.888-5.006-38.551-9.123-15.531-5.048-27.875-7.717-26.8-16.291q.84-6.7,18.45-13.7,108.446-47.248,144.628-62.3c68.872-28.647,83.183-33.623,92.511-33.789,2.052-.034,6.639.474,9.61,2.885a10.452,10.452,0,0,1,3.53,6.716A43.765,43.765,0,0,1,362.952,176.66Z"></path>
</symbol>
<symbol stroke="currentColor" fill="currentColor" stroke-width="0" viewBox="0 0 512 512" id="fa6/x-twitter">
  <path d="M389.2 48h70.6L305.6 224.2 487 464H345L233.7 318.6 106.5 464H35.8L200.7 275.5 26.8 48H172.4L272.9 180.9 389.2 48zM364.4 421.8h39.1L151.1 88h-42L364.4 421.8z"></path>
</symbol>
<symbol stroke="currentColor" fill="currentColor" stroke-width="0" viewBox="0 0 384 512" id="fa6/xing">
  <path d="M162.7 210c-1.8 3.3-25.2 44.4-70.1 123.5-4.9 8.3-10.8 12.5-17.7 12.5H9.8c-7.7 0-12.1-7.5-8.5-14.4l69-121.3c.2 0 .2-.1 0-.3l-43.9-75.6c-4.3-7.8.3-14.1 8.5-14.1H100c7.3 0 13.3 4.1 18 12.2l44.7 77.5zM382.6 46.1l-144 253v.3L330.2 466c3.9 7.1.2 14.1-8.5 14.1h-65.2c-7.6 0-13.6-4-18-12.2l-92.4-168.5c3.3-5.8 51.5-90.8 144.8-255.2 4.6-8.1 10.4-12.2 17.5-12.2h65.7c8 0 12.3 6.7 8.5 14.1z"></path>
</symbol>
<symbol stroke="currentColor" fill="currentColor" stroke-width="0" viewBox="0 0 320 512" id="fa6/yandex-international">
  <path d="M129.5 512V345.9L18.5 48h55.8l81.8 229.7L250.2 0h51.3L180.8 347.8V512h-51.3z"></path>
</symbol>
<symbol stroke="currentColor" fill="currentColor" stroke-width="0" viewBox="0 0 576 512" id="fa6/youtube">
  <path d="M549.655 124.083c-6.281-23.65-24.787-42.276-48.284-48.597C458.781 64 288 64 288 64S117.22 64 74.629 75.486c-23.497 6.322-42.003 24.947-48.284 48.597-11.412 42.867-11.412 132.305-11.412 132.305s0 89.438 11.412 132.305c6.281 23.65 24.787 41.5 48.284 47.821C117.22 448 288 448 288 448s170.78 0 213.371-11.486c23.497-6.321 42.003-24.171 48.284-47.821 11.412-42.867 11.412-132.305 11.412-132.305s0-89.438-11.412-132.305zm-317.51 213.508V175.185l142.739 81.205-142.739 81.201z"></path>
</symbol>
<symbol stroke="currentColor" fill="currentColor" stroke-width="0" viewBox="0 0 16 16" id="im/stack">
  <path d="M16 5l-8-4-8 4 8 4 8-4zM8 2.328l5.345 2.672-5.345 2.672-5.345-2.672 5.345-2.672zM14.398 7.199l1.602 0.801-8 4-8-4 1.602-0.801 6.398 3.199zM14.398 10.199l1.602 0.801-8 4-8-4 1.602-0.801 6.398 3.199z"></path>
</symbol>
<symbol stroke="currentColor" fill="currentColor" stroke-width="0" viewBox="0 0 512 512" id="io/chevron-down">
  <path fill="none" stroke-linecap="round" stroke-linejoin="round" stroke-width="48" d="M112 184l144 144 144-144"></path>
</symbol>
<symbol stroke="currentColor" fill="currentColor" stroke-width="0" viewBox="0 0 512 512" id="io/ios-funnel">
  <path d="M48 87.2c0 5.8 2 11.4 5.6 15.7l152.2 179.8c3.6 4.3 5.6 9.9 5.6 15.7v107c0 10 5.9 18.8 14.6 22l55 19.8c9.6 3.5 19.6-4.3 19.6-15.3V298.3c0-5.8 2-11.4 5.6-15.7l152.2-179.8c3.6-4.3 5.6-9.9 5.6-15.7 0-12.8-9.6-23.2-21.4-23.2H69.4C57.6 64 48 74.4 48 87.2z"></path>
</symbol>
<symbol stroke="currentColor" fill="currentColor" stroke-width="0" viewBox="0 0 512 512" id="io/md-close-circle">
  <path d="M256 48C140.559 48 48 140.559 48 256c0 115.436 92.559 208 208 208 115.435 0 208-92.564 208-208 0-115.441-92.564-208-208-208zm104.002 282.881l-29.12 29.117L256 285.117l-74.881 74.881-29.121-29.117L226.881 256l-74.883-74.881 29.121-29.116L256 226.881l74.881-74.878 29.12 29.116L285.119 256l74.883 74.881z"></path>
</symbol>
<symbol stroke="currentColor" fill="currentColor" stroke-width="0" viewBox="0 0 512 512" id="io/md-eye-off">
  <path d="M256.1 144.8c56.2 0 101.9 45.3 101.9 101.1 0 13.1-2.6 25.5-7.3 37l59.5 59c30.8-25.5 55-58.4 69.9-96-35.3-88.7-122.3-151.6-224.2-151.6-28.5 0-55.8 5.1-81.1 14.1l44 43.7c11.6-4.6 24.1-7.3 37.3-7.3zM52.4 89.7l46.5 46.1 9.4 9.3c-33.9 26-60.4 60.8-76.3 100.8 35.2 88.7 122.2 151.6 224.1 151.6 31.6 0 61.7-6.1 89.2-17l8.6 8.5 59.7 59 25.9-25.7L78.2 64 52.4 89.7zM165 201.4l31.6 31.3c-1 4.2-1.6 8.7-1.6 13.1 0 33.5 27.3 60.6 61.1 60.6 4.5 0 9-.6 13.2-1.6l31.6 31.3c-13.6 6.7-28.7 10.7-44.8 10.7-56.2 0-101.9-45.3-101.9-101.1 0-15.8 4.1-30.7 10.8-44.3zm87.8-15.7l64.2 63.7.4-3.2c0-33.5-27.3-60.6-61.1-60.6l-3.5.1z"></path>
</symbol>
<symbol stroke="currentColor" fill="currentColor" stroke-width="0" viewBox="0 0 512 512" id="io/md-eye">
  <path d="M256 105c-101.8 0-188.4 62.4-224 151 35.6 88.6 122.2 151 224 151s188.4-62.4 224-151c-35.6-88.6-122.2-151-224-151zm0 251.7c-56 0-101.8-45.3-101.8-100.7S200 155.3 256 155.3 357.8 200.6 357.8 256 312 356.7 256 356.7zm0-161.1c-33.6 0-61.1 27.2-61.1 60.4s27.5 60.4 61.1 60.4 61.1-27.2 61.1-60.4-27.5-60.4-61.1-60.4z"></path>
</symbol>
<symbol stroke="currentColor" fill="currentColor" stroke-width="0" viewBox="0 0 24 24" id="md/arrow-drop-down">
  <path fill="none" d="M0 0h24v24H0z"></path>
  <path d="M7 10l5 5 5-5z"></path>
</symbol>
<symbol stroke="currentColor" fill="currentColor" stroke-width="0" viewBox="0 0 24 24" id="md/arrow-drop-up">
  <path fill="none" d="M0 0h24v24H0z"></path>
  <path d="M7 14l5-5 5 5z"></path>
</symbol>
<symbol stroke="currentColor" fill="currentColor" stroke-width="0" viewBox="0 0 24 24" id="md/arrow-forward-ios">
  <path fill="none" d="M0 0h24v24H0V0z"></path>
  <path d="M6.23 20.23L8 22l10-10L8 2 6.23 3.77 14.46 12z"></path>
</symbol>
<symbol stroke="currentColor" fill="currentColor" stroke-width="0" viewBox="0 0 24 24" id="md/arrow-left">
  <path d="M14 7l-5 5 5 5V7z"></path>
  <path fill="none" d="M24 0v24H0V0h24z"></path>
</symbol>
<symbol stroke="currentColor" fill="currentColor" stroke-width="0" viewBox="0 0 24 24" id="md/arrow-right">
  <path d="M10 17l5-5-5-5v10z"></path>
  <path fill="none" d="M0 24V0h24v24H0z"></path>
</symbol>
<symbol stroke="currentColor" fill="currentColor" stroke-width="0" viewBox="0 0 24 24" id="md/camera">
  <path fill="none" d="M0 0h24v24H0z"></path>
  <path d="M9.4 10.5l4.77-8.26a9.984 9.984 0 00-8.49 2.01l3.66 6.35.06-.1zM21.54 9c-.92-2.92-3.15-5.26-6-6.34L11.88 9h9.66zm.26 1h-7.49l.29.5 4.76 8.25A9.91 9.91 0 0022 12c0-.69-.07-1.35-.2-2zM8.54 12l-3.9-6.75A9.958 9.958 0 002.2 14h7.49l-1.15-2zm-6.08 3c.92 2.92 3.15 5.26 6 6.34L12.12 15H2.46zm11.27 0l-3.9 6.76a9.984 9.984 0 008.49-2.01l-3.66-6.35-.93 1.6z"></path>
</symbol>
<symbol stroke="currentColor" fill="currentColor" stroke-width="0" viewBox="0 0 24 24" id="md/check-circle">
  <path fill="none" d="M0 0h24v24H0z"></path>
  <path d="M12 2C6.48 2 2 6.48 2 12s4.48 10 10 10 10-4.48 10-10S17.52 2 12 2zm-2 15l-5-5 1.41-1.41L10 14.17l7.59-7.59L19 8l-9 9z"></path>
</symbol>
<symbol stroke="currentColor" fill="currentColor" stroke-width="0" viewBox="0 0 24 24" id="md/chevron-left">
  <path fill="none" d="M0 0h24v24H0z"></path>
  <path d="M15.41 7.41L14 6l-6 6 6 6 1.41-1.41L10.83 12z"></path>
</symbol>
<symbol stroke="currentColor" fill="currentColor" stroke-width="0" viewBox="0 0 24 24" id="md/chevron-right">
  <path fill="none" d="M0 0h24v24H0z"></path>
  <path d="M10 6L8.59 7.41 13.17 12l-4.58 4.59L10 18l6-6z"></path>
</symbol>
<symbol stroke="currentColor" fill="currentColor" stroke-width="0" viewBox="0 0 24 24" id="md/close">
  <path fill="none" d="M0 0h24v24H0z"></path>
  <path d="M19 6.41L17.59 5 12 10.59 6.41 5 5 6.41 10.59 12 5 17.59 6.41 19 12 13.41 17.59 19 19 17.59 13.41 12z"></path>
</symbol>
<symbol stroke="currentColor" fill="currentColor" stroke-width="0" viewBox="0 0 24 24" id="md/cloud-upload">
  <path fill="none" d="M0 0h24v24H0z"></path>
  <path d="M19.35 10.04A7.49 7.49 0 0012 4C9.11 4 6.6 5.64 5.35 8.04A5.994 5.994 0 000 14c0 3.31 2.69 6 6 6h13c2.76 0 5-2.24 5-5 0-2.64-2.05-4.78-4.65-4.96zM14 13v4h-4v-4H7l5-5 5 5h-3z"></path>
</symbol>
<symbol stroke="currentColor" fill="currentColor" stroke-width="0" viewBox="0 0 24 24" id="md/directions">
  <path fill="none" d="M0 0h24v24H0z"></path>
  <path d="m21.41 10.59-7.99-8c-.78-.78-2.05-.78-2.83 0l-8.01 8c-.78.78-.78 2.05 0 2.83l8.01 8c.78.78 2.05.78 2.83 0l7.99-8c.79-.79.79-2.05 0-2.83zM13.5 14.5V12H10v3H8v-4c0-.55.45-1 1-1h4.5V7.5L17 11l-3.5 3.5z"></path>
</symbol>
<symbol stroke="currentColor" fill="currentColor" stroke-width="0" viewBox="0 0 24 24" id="md/expand-less">
  <path fill="none" d="M0 0h24v24H0z"></path>
  <path d="M12 8l-6 6 1.41 1.41L12 10.83l4.59 4.58L18 14z"></path>
</symbol>
<symbol stroke="currentColor" fill="currentColor" stroke-width="0" viewBox="0 0 24 24" id="md/expand-more">
  <path fill="none" d="M0 0h24v24H0z"></path>
  <path d="M16.59 8.59L12 13.17 7.41 8.59 6 10l6 6 6-6z"></path>
</symbol>
<symbol stroke="currentColor" fill="currentColor" stroke-width="0" viewBox="0 0 24 24" id="md/face">
  <path fill="none" d="M0 0h24v24H0z"></path>
  <path d="M9 11.75a1.25 1.25 0 100 2.5 1.25 1.25 0 000-2.5zm6 0a1.25 1.25 0 100 2.5 1.25 1.25 0 000-2.5zM12 2C6.48 2 2 6.48 2 12s4.48 10 10 10 10-4.48 10-10S17.52 2 12 2zm0 18c-4.41 0-8-3.59-8-8 0-.29.02-.58.05-.86 2.36-1.05 4.23-2.98 5.21-5.37a9.974 9.974 0 0010.41 3.97c.21.71.33 1.47.33 2.26 0 4.41-3.59 8-8 8z"></path>
</symbol>
<symbol stroke="currentColor" fill="currentColor" stroke-width="0" viewBox="0 0 24 24" id="md/filter-alt">
  <path fill="none" d="M0 0h24m0 24H0"></path>
  <path d="M4.25 5.61C6.27 8.2 10 13 10 13v6c0 .55.45 1 1 1h2c.55 0 1-.45 1-1v-6s3.72-4.8 5.74-7.39A.998.998 0 0018.95 4H5.04c-.83 0-1.3.95-.79 1.61z"></path>
  <path fill="none" d="M0 0h24v24H0V0z"></path>
</symbol>
<symbol stroke="currentColor" fill="currentColor" stroke-width="0" viewBox="0 0 24 24" id="md/first-page">
  <path d="M18.41 16.59L13.82 12l4.59-4.59L17 6l-6 6 6 6zM6 6h2v12H6z"></path>
  <path fill="none" d="M24 24H0V0h24v24z"></path>
</symbol>
<symbol stroke="currentColor" fill="currentColor" stroke-width="0" viewBox="0 0 24 24" id="md/folder">
  <path fill="none" d="M0 0h24v24H0z"></path>
  <path d="M10 4H4c-1.1 0-1.99.9-1.99 2L2 18c0 1.1.9 2 2 2h16c1.1 0 2-.9 2-2V8c0-1.1-.9-2-2-2h-8l-2-2z"></path>
</symbol>
<symbol stroke="currentColor" fill="currentColor" stroke-width="0" viewBox="0 0 24 24" id="md/image-search">
  <path fill="none" d="M0 0h24v24H0z"></path>
  <path fill="none" d="M0 0h24v24H0V0z"></path>
  <path d="M18 13v7H4V6h5.02c.05-.71.22-1.38.48-2H4c-1.1 0-2 .9-2 2v14c0 1.1.9 2 2 2h14c1.1 0 2-.9 2-2v-5l-2-2zm-1.5 5h-11l2.75-3.53 1.96 2.36 2.75-3.54zm2.8-9.11c.44-.7.7-1.51.7-2.39C20 4.01 17.99 2 15.5 2S11 4.01 11 6.5s2.01 4.5 4.49 4.5c.88 0 1.7-.26 2.39-.7L21 13.42 22.42 12 19.3 8.89zM15.5 9a2.5 2.5 0 010-5 2.5 2.5 0 010 5z"></path>
</symbol>
<symbol stroke="currentColor" fill="currentColor" stroke-width="0" viewBox="0 0 24 24" id="md/keyboard-arrow-down">
  <path fill="none" d="M0 0h24v24H0V0z"></path>
  <path d="M7.41 8.59L12 13.17l4.59-4.58L18 10l-6 6-6-6 1.41-1.41z"></path>
</symbol>
<symbol stroke="currentColor" fill="currentColor" stroke-width="0" viewBox="0 0 24 24" id="md/keyboard-arrow-left">
  <path fill="none" d="M0 0h24v24H0V0z"></path>
  <path d="M15.41 16.59L10.83 12l4.58-4.59L14 6l-6 6 6 6 1.41-1.41z"></path>
</symbol>
<symbol stroke="currentColor" fill="currentColor" stroke-width="0" viewBox="0 0 24 24" id="md/keyboard-arrow-right">
  <path fill="none" d="M0 0h24v24H0V0z"></path>
  <path d="M8.59 16.59L13.17 12 8.59 7.41 10 6l6 6-6 6-1.41-1.41z"></path>
</symbol>
<symbol stroke="currentColor" fill="currentColor" stroke-width="0" viewBox="0 0 24 24" id="md/keyboard-arrow-up">
  <path fill="none" d="M0 0h24v24H0z"></path>
  <path d="M7.41 15.41L12 10.83l4.59 4.58L18 14l-6-6-6 6z"></path>
</symbol>
<symbol stroke="currentColor" fill="currentColor" stroke-width="0" viewBox="0 0 24 24" id="md/language">
  <path fill="none" d="M0 0h24v24H0z"></path>
  <path d="M11.99 2C6.47 2 2 6.48 2 12s4.47 10 9.99 10C17.52 22 22 17.52 22 12S17.52 2 11.99 2zm6.93 6h-2.95a15.65 15.65 0 00-1.38-3.56A8.03 8.03 0 0118.92 8zM12 4.04c.83 1.2 1.48 2.53 1.91 3.96h-3.82c.43-1.43 1.08-2.76 1.91-3.96zM4.26 14C4.1 13.36 4 12.69 4 12s.1-1.36.26-2h3.38c-.08.66-.14 1.32-.14 2 0 .68.06 1.34.14 2H4.26zm.82 2h2.95c.32 1.25.78 2.45 1.38 3.56A7.987 7.987 0 015.08 16zm2.95-8H5.08a7.987 7.987 0 014.33-3.56A15.65 15.65 0 008.03 8zM12 19.96c-.83-1.2-1.48-2.53-1.91-3.96h3.82c-.43 1.43-1.08 2.76-1.91 3.96zM14.34 14H9.66c-.09-.66-.16-1.32-.16-2 0-.68.07-1.35.16-2h4.68c.09.65.16 1.32.16 2 0 .68-.07 1.34-.16 2zm.25 5.56c.6-1.11 1.06-2.31 1.38-3.56h2.95a8.03 8.03 0 01-4.33 3.56zM16.36 14c.08-.66.14-1.32.14-2 0-.68-.06-1.34-.14-2h3.38c.16.64.26 1.31.26 2s-.1 1.36-.26 2h-3.38z"></path>
</symbol>
<symbol stroke="currentColor" fill="currentColor" stroke-width="0" viewBox="0 0 24 24" id="md/last-page">
  <path fill="none" d="M0 0h24v24H0V0z"></path>
  <path d="M5.59 7.41L10.18 12l-4.59 4.59L7 18l6-6-6-6zM16 6h2v12h-2z"></path>
</symbol>
<symbol stroke="currentColor" fill="currentColor" stroke-width="0" viewBox="0 0 24 24" id="md/location-pin">
  <path fill="none" d="M0 0h24v24H0z"></path>
  <path d="M12 2C8.13 2 5 5.13 5 9c0 1.74.5 3.37 1.41 4.84.95 1.54 2.2 2.86 3.16 4.4.47.75.81 1.45 1.17 2.26.26.55.47 1.5 1.26 1.5s1-.95 1.25-1.5c.37-.81.7-1.51 1.17-2.26.96-1.53 2.21-2.85 3.16-4.4C18.5 12.37 19 10.74 19 9c0-3.87-3.13-7-7-7zm0 9.75a2.5 2.5 0 0 1 0-5 2.5 2.5 0 0 1 0 5z"></path>
</symbol>
<symbol stroke="currentColor" fill="currentColor" stroke-width="0" viewBox="0 0 24 24" id="md/mail-outline">
  <path fill="none" d="M0 0h24v24H0z"></path>
  <path d="M20 4H4c-1.1 0-1.99.9-1.99 2L2 18c0 1.1.9 2 2 2h16c1.1 0 2-.9 2-2V6c0-1.1-.9-2-2-2zm0 14H4V8l8 5 8-5v10zm-8-7L4 6h16l-8 5z"></path>
</symbol>
<symbol stroke="currentColor" fill="currentColor" stroke-width="0" viewBox="0 0 24 24" id="md/menu">
  <path fill="none" d="M0 0h24v24H0z"></path>
  <path d="M3 18h18v-2H3v2zm0-5h18v-2H3v2zm0-7v2h18V6H3z"></path>
</symbol>
<symbol stroke="currentColor" fill="currentColor" stroke-width="0" viewBox="0 0 24 24" id="md/open-in-new">
  <path fill="none" d="M0 0h24v24H0z"></path>
  <path d="M19 19H5V5h7V3H5a2 2 0 00-2 2v14a2 2 0 002 2h14c1.1 0 2-.9 2-2v-7h-2v7zM14 3v2h3.59l-9.83 9.83 1.41 1.41L19 6.41V10h2V3h-7z"></path>
</symbol>
<symbol stroke="currentColor" fill="currentColor" stroke-width="0" viewBox="0 0 24 24" id="md/outline/add-circle-outline">
  <path fill="none" d="M0 0h24v24H0V0z"></path>
  <path d="M13 7h-2v4H7v2h4v4h2v-4h4v-2h-4V7zm-1-5C6.48 2 2 6.48 2 12s4.48 10 10 10 10-4.48 10-10S17.52 2 12 2zm0 18c-4.41 0-8-3.59-8-8s3.59-8 8-8 8 3.59 8 8-3.59 8-8 8z"></path>
</symbol>
<symbol stroke="currentColor" fill="currentColor" stroke-width="0" viewBox="0 0 24 24" id="md/outline/error">
  <path d="M12 2C6.48 2 2 6.48 2 12s4.48 10 10 10 10-4.48 10-10S17.52 2 12 2zm1 15h-2v-2h2v2zm0-4h-2V7h2v6z"></path>
</symbol>
<symbol stroke="currentColor" fill="currentColor" stroke-width="0" viewBox="0 0 24 24" id="md/outline/panorama">
  <path fill="none" d="M0 0h24v24H0V0z"></path>
  <path d="M21 4H3c-1.1 0-2 .9-2 2v12c0 1.1.9 2 2 2h18c1.1 0 2-.9 2-2V6c0-1.1-.9-2-2-2zm0 14H3V6h18v12zm-6.5-7L11 15.51 8.5 12.5 5 17h14z"></path>
</symbol>
<symbol stroke="currentColor" fill="currentColor" stroke-width="0" viewBox="0 0 24 24" id="md/person">
  <path fill="none" d="M0 0h24v24H0z"></path>
  <path d="M12 12c2.21 0 4-1.79 4-4s-1.79-4-4-4-4 1.79-4 4 1.79 4 4 4zm0 2c-2.67 0-8 1.34-8 4v2h16v-2c0-2.66-5.33-4-8-4z"></path>
</symbol>
<symbol stroke="currentColor" fill="currentColor" stroke-width="0" viewBox="0 0 24 24" id="md/phone">
  <path fill="none" d="M0 0h24v24H0z"></path>
  <path d="M6.62 10.79c1.44 2.83 3.76 5.14 6.59 6.59l2.2-2.2c.27-.27.67-.36 1.02-.24 1.12.37 2.33.57 3.57.57.55 0 1 .45 1 1V20c0 .55-.45 1-1 1-9.39 0-17-7.61-17-17 0-.55.45-1 1-1h3.5c.55 0 1 .45 1 1 0 1.25.2 2.45.57 3.57.11.35.03.74-.25 1.02l-2.2 2.2z"></path>
</symbol>
<symbol stroke="currentColor" fill="currentColor" stroke-width="0" viewBox="0 0 24 24" id="md/photo-size-select-large">
  <path fill="none" d="M24 24H0V0h24v24z"></path>
  <path d="M21 15h2v2h-2v-2zm0-4h2v2h-2v-2zm2 8h-2v2c1 0 2-1 2-2zM13 3h2v2h-2V3zm8 4h2v2h-2V7zm0-4v2h2c0-1-1-2-2-2zM1 7h2v2H1V7zm16-4h2v2h-2V3zm0 16h2v2h-2v-2zM3 3C2 3 1 4 1 5h2V3zm6 0h2v2H9V3zM5 3h2v2H5V3zm-4 8v8c0 1.1.9 2 2 2h12V11H1zm2 8l2.5-3.21 1.79 2.15 2.5-3.22L13 19H3z"></path>
</symbol>
<symbol stroke="currentColor" fill="currentColor" stroke-width="0" viewBox="0 0 24 24" id="md/refresh">
  <path fill="none" d="M0 0h24v24H0z"></path>
  <path d="M17.65 6.35A7.958 7.958 0 0012 4c-4.42 0-7.99 3.58-7.99 8s3.57 8 7.99 8c3.73 0 6.84-2.55 7.73-6h-2.08A5.99 5.99 0 0112 18c-3.31 0-6-2.69-6-6s2.69-6 6-6c1.66 0 3.14.69 4.22 1.78L13 11h7V4l-2.35 2.35z"></path>
</symbol>
<symbol stroke="currentColor" fill="currentColor" stroke-width="0" viewBox="0 0 24 24" id="md/remove-circle-outline">
  <path fill="none" d="M0 0h24v24H0z"></path>
  <path d="M7 11v2h10v-2H7zm5-9C6.48 2 2 6.48 2 12s4.48 10 10 10 10-4.48 10-10S17.52 2 12 2zm0 18c-4.41 0-8-3.59-8-8s3.59-8 8-8 8 3.59 8 8-3.59 8-8 8z"></path>
</symbol>
<symbol stroke="currentColor" fill="currentColor" stroke-width="0" viewBox="0 0 24 24" id="md/search-off">
  <path fill="none" d="M0 0h24v24H0z"></path>
  <path d="M15.5 14h-.79l-.28-.27A6.471 6.471 0 0016 9.5 6.5 6.5 0 009.5 3C6.08 3 3.28 5.64 3.03 9h2.02C5.3 6.75 7.18 5 9.5 5 11.99 5 14 7.01 14 9.5S11.99 14 9.5 14c-.17 0-.33-.03-.5-.05v2.02c.17.02.33.03.5.03 1.61 0 3.09-.59 4.23-1.57l.27.28v.79l5 4.99L20.49 19l-4.99-5z"></path>
  <path d="M6.47 10.82L4 13.29l-2.47-2.47-.71.71L3.29 14 .82 16.47l.71.71L4 14.71l2.47 2.47.71-.71L4.71 14l2.47-2.47z"></path>
</symbol>
<symbol stroke="currentColor" fill="currentColor" stroke-width="0" viewBox="0 0 24 24" id="md/search">
  <path fill="none" d="M0 0h24v24H0z"></path>
  <path d="M15.5 14h-.79l-.28-.27A6.471 6.471 0 0016 9.5 6.5 6.5 0 109.5 16c1.61 0 3.09-.59 4.23-1.57l.27.28v.79l5 4.99L20.49 19l-4.99-5zm-6 0C7.01 14 5 11.99 5 9.5S7.01 5 9.5 5 14 7.01 14 9.5 11.99 14 9.5 14z"></path>
</symbol>
<symbol stroke="currentColor" fill="currentColor" stroke-width="0" viewBox="0 0 24 24" id="md/star-half">
  <path fill="none" d="M0 0h24v24H0z"></path>
  <path d="M22 9.24l-7.19-.62L12 2 9.19 8.63 2 9.24l5.46 4.73L5.82 21 12 17.27 18.18 21l-1.63-7.03L22 9.24zM12 15.4V6.1l1.71 4.04 4.38.38-3.32 2.88 1 4.28L12 15.4z"></path>
</symbol>
<symbol stroke="currentColor" fill="currentColor" stroke-width="0" viewBox="0 0 24 24" id="md/star-outline">
  <path d="M22 9.24l-7.19-.62L12 2 9.19 8.63 2 9.24l5.46 4.73L5.82 21 12 17.27 18.18 21l-1.63-7.03L22 9.24zM12 15.4l-3.76 2.27 1-4.28-3.32-2.88 4.38-.38L12 6.1l1.71 4.04 4.38.38-3.32 2.88 1 4.28L12 15.4z"></path>
</symbol>
<symbol stroke="currentColor" fill="currentColor" stroke-width="0" viewBox="0 0 24 24" id="md/star">
  <path fill="none" d="M0 0h24v24H0z"></path>
  <path fill="none" d="M0 0h24v24H0z"></path>
  <path d="M12 17.27L18.18 21l-1.64-7.03L22 9.24l-7.19-.61L12 2 9.19 8.63 2 9.24l5.46 4.73L5.82 21z"></path>
</symbol>
<symbol stroke="currentColor" fill="currentColor" stroke-width="0" viewBox="0 0 24 24" id="md/verified">
  <path fill="none" d="M0 0h24v24H0z"></path>
  <path d="m23 12-2.44-2.79.34-3.69-3.61-.82-1.89-3.2L12 2.96 8.6 1.5 6.71 4.69 3.1 5.5l.34 3.7L1 12l2.44 2.79-.34 3.7 3.61.82L8.6 22.5l3.4-1.47 3.4 1.46 1.89-3.19 3.61-.82-.34-3.69L23 12zm-12.91 4.72-3.8-3.81 1.48-1.48 2.32 2.33 5.85-5.87 1.48 1.48-7.33 7.35z"></path>
</symbol>
<symbol stroke="currentColor" fill="none" stroke-width="2" viewBox="0 0 24 24" stroke-linecap="round" stroke-linejoin="round" id="tb/calendar-check">
  <path stroke="none" d="M0 0h24v24H0z" fill="none"></path>
  <path d="M11.5 21h-5.5a2 2 0 0 1 -2 -2v-12a2 2 0 0 1 2 -2h12a2 2 0 0 1 2 2v6"></path>
  <path d="M16 3v4"></path>
  <path d="M8 3v4"></path>
  <path d="M4 11h16"></path>
  <path d="M15 19l2 2l4 -4"></path>
</symbol>
<symbol viewBox="0 0 16 16" fill="none" id="tb/star-check">
  <path d="M15.3334 8L13.7067 6.14L13.9334 3.68L11.5267 3.13333L10.2667 1L8.00008 1.97333L5.73341 1L4.47341 3.12667L2.06675 3.66667L2.29341 6.13333L0.666748 8L2.29341 9.86L2.06675 12.3267L4.47341 12.8733L5.73341 15L8.00008 14.02L10.2667 14.9933L11.5267 12.8667L13.9334 12.32L13.7067 9.86L15.3334 8ZM6.72675 11.1467L4.19341 8.60667L5.18008 7.62L6.72675 9.17333L10.6267 5.26L11.6134 6.24667L6.72675 11.1467Z" fill="none"></path>
</symbol>
</defs>
</svg>
